# xmcd CD database file
#
# Track frame offsets:
#	150
#	25061
#	43496
#	71432
#	102931
#	127865
#	132576
#	144897
#	165891
#	200511
#
# Disc length: 2746 seconds
#
# Revision: 0
# Processed by: cddbd v1.5.2PL0 Copyright (c) Steve Scherf et al.
# Submitted via: CDex 1.51
#
DISCID=850ab80a
DTITLE=Airelle Besson and Sylvain Rifflet - Rockingchair
DYEAR=2005
DGENRE=Jazz
TTITLE0=Boo boo
TTITLE1=Forget it 
TTITLE2=Ma-ion
TTITLE3=Fly Away
TTITLE4=Désert
TTITLE5=Duo
TTITLE6=Wee Man
TTITLE7=Tsunami
TTITLE8=Éternité
TTITLE9=Bout de Boo boo
EXTD=YEAR: 2005
EXTT0=
EXTT1=
EXTT2=
EXTT3=
EXTT4=
EXTT5=
EXTT6=
EXTT7=
EXTT8=
EXTT9=
PLAYORDER=
